<?xml version="1.0" encoding="UTF-8"?>
<!DOCTYPE svg PUBLIC "-//W3C//DTD SVG 1.1//EN" "http://www.w3.org/Graphics/SVG/1.1/DTD/svg11.dtd">
<!-- Creator: CorelDRAW 2020 (64 Bit) -->
<svg xmlns="http://www.w3.org/2000/svg" xml:space="preserve" width="69.5036mm" height="18.058mm" version="1.1" style="shape-rendering:geometricPrecision; text-rendering:geometricPrecision; image-rendering:optimizeQuality; fill-rule:evenodd; clip-rule:evenodd"
viewBox="0 0 2605.46 676.93"
 xmlns:xlink="http://www.w3.org/1999/xlink"
 xmlns:xodm="http://www.corel.com/coreldraw/odm/2003">
 <defs>
  <style type="text/css">
   <![CDATA[
    .str0 {stroke:#FFC802;stroke-width:7.5;stroke-miterlimit:22.9256}
    .str2 {stroke:black;stroke-width:17.79;stroke-linecap:round;stroke-linejoin:round;stroke-miterlimit:22.9256}
    .str1 {stroke:black;stroke-width:30.38;stroke-linecap:round;stroke-linejoin:round;stroke-miterlimit:22.9256}
    .fil2 {fill:none}
    .fil4 {fill:none;fill-rule:nonzero}
    .fil3 {fill:black}
    .fil0 {fill:#F4811D}
    .fil1 {fill:#FFC802}
    .fil5 {fill:url(#id1);fill-rule:nonzero}
    .fil6 {fill:url(#id2);fill-rule:nonzero}
   ]]>
  </style>
   <clipPath id="id0">
    <path d="M338.47 0c186.93,0 338.47,151.54 338.47,338.47 0,186.93 -151.54,338.47 -338.47,338.47 -186.93,0 -338.47,-151.54 -338.47,-338.47 0,-186.93 151.54,-338.47 338.47,-338.47z"/>
   </clipPath>
  <linearGradient id="id1" gradientUnits="userSpaceOnUse" x1="1674.74" y1="358.16" x2="1691.95" y2="44.78">
   <stop offset="0" style="stop-opacity:1; stop-color:#F4811D"/>
   <stop offset="1" style="stop-opacity:1; stop-color:#FFC802"/>
  </linearGradient>
  <linearGradient id="id2" gradientUnits="userSpaceOnUse" xlink:href="#id1" x1="1673.7" y1="631.45" x2="1679.65" y2="447.56">
  </linearGradient>
 </defs>
 <g id="Camada_x0020_1">
  <metadata id="CorelCorpID_0Corel-Layer"/>
  <path class="fil0" d="M338.47 0c186.93,0 338.47,151.54 338.47,338.47 0,186.93 -151.54,338.47 -338.47,338.47 -186.93,0 -338.47,-151.54 -338.47,-338.47 0,-186.93 151.54,-338.47 338.47,-338.47z"/>
  <g style="clip-path:url(#id0)">
   <g id="_2605416053888">
    <rect class="fil1 str0" x="-286.38" y="329.78" width="1299.31" height="370.7"/>
   </g>
  </g>
  <path class="fil2" d="M338.47 0c186.93,0 338.47,151.54 338.47,338.47 0,186.93 -151.54,338.47 -338.47,338.47 -186.93,0 -338.47,-151.54 -338.47,-338.47 0,-186.93 151.54,-338.47 338.47,-338.47z"/>
  <path class="fil3" d="M338.47 23.56c173.92,0 314.91,140.99 314.91,314.91 0,173.92 -140.99,314.91 -314.91,314.91 -173.92,0 -314.91,-140.99 -314.91,-314.91 0,-173.92 140.99,-314.91 314.91,-314.91z"/>
  <path class="fil1" d="M379.09 650.78l-20.8 -265.18 -111.58 3.72 -24.79 -221.92 -84.31 267.79 99.19 4.96 -19.37 189.11c37.27,15.53 78.15,24.12 121.04,24.12 13.77,0 27.33,-0.89 40.63,-2.6z"/>
  <path class="fil0" d="M304.98 25.33l22.33 284.64 111.58 -3.72 24.79 221.92 84.31 -267.79 -99.19 -4.96 20.83 -203.31c-39.93,-18.32 -84.35,-28.55 -131.17,-28.55 -11.31,0 -22.48,0.61 -33.49,1.77z"/>
  <g>
   <path class="fil4 str1" d="M1080.81 110.6c-6.86,-3.88 -14.02,-6.34 -21.48,-7.38 -7.46,-1.05 -16.42,-1.57 -26.86,-1.57l-113.25 0c-12.83,0 -20.97,2.53 -24.4,7.61 -3.43,5.07 -5.15,14.1 -5.15,27.23l0 129.97c0,13.13 1.71,22.16 5.15,27.23 3.43,5.08 11.56,7.61 24.4,7.61l32.23 0c10.15,0 16.56,-2.24 19.25,-6.79 2.68,-4.48 4.03,-12.24 4.03,-23.35l0 -51.78 -28.42 0c-7.16,0 -13.43,0.45 -18.65,1.34 -5.3,0.9 -11.04,2.68 -17.38,5.37l0 -54.16 189.35 0c-4.48,6.27 -7.68,13.06 -9.63,20.44 -1.94,7.31 -2.91,15.29 -2.91,23.95l0 89.75c0,8.73 0.97,16.71 2.91,24.03 1.94,7.38 5.15,14.17 9.63,20.44l-98.93 0c-1.19,-4.78 -2.24,-10.37 -3.13,-16.79 -0.89,-6.42 -1.64,-11.71 -2.24,-15.89 0,14.02 -4.55,22.98 -13.65,26.86 -9.1,3.88 -22.31,5.82 -39.62,5.82l-86.4 0c-25.07,0 -44.54,-4.4 -58.42,-13.21 -13.88,-8.8 -20.82,-25.07 -20.82,-48.94l0 -174.28c0,-23.58 7.09,-39.69 21.26,-48.5 14.18,-8.8 33.5,-13.21 57.97,-13.21l215.32 0 9.85 58.19zm273.51 -58.19l104.75 263.29c5.08,11.86 12.84,23.5 23.28,34.84l-150.41 0c5.07,-5.97 7.61,-12.68 7.61,-20.15 0,-9.55 -2.76,-20.14 -8.28,-31.78 -5.45,-11.64 -9.85,-21.19 -13.13,-28.65l-121.91 0 -18.73 40.74c-1.64,3.28 -2.98,6.49 -4.1,9.63 -1.12,3.13 -1.71,6.34 -1.71,9.62 0,2.98 0.52,6.27 1.57,9.85 1.04,3.58 2.46,7.16 4.25,10.74l-83.71 0c6.56,-7.76 12.91,-16.42 19.02,-25.89 6.12,-9.55 11.71,-19.55 16.79,-29.99l105.2 -224.34c-3.28,-7.16 -7.31,-13.13 -12.09,-17.91l131.61 0zm-94.46 76.99l-41.63 92.22 79.68 0 -38.05 -92.22zm363.04 94.01l0 82.82c0,8.95 0.97,16.94 2.91,23.95 1.94,7.01 5.15,13.8 9.62,20.37l-138.32 0c4.18,-5.97 7.31,-12.91 9.4,-20.82 2.09,-7.83 3.13,-15.67 3.13,-23.43l0 -209.65c0,-8.95 -0.97,-16.93 -2.91,-23.87 -1.94,-7.01 -5.15,-13.8 -9.63,-20.37l245.76 0c25.07,0 44.54,4.33 58.42,12.98 13.88,8.58 20.82,25 20.82,49.09l0 63.86c0,15.15 -2.83,26.56 -8.51,34.1 -5.67,7.61 -15.22,11.41 -28.65,11.41l-6.72 -0.45 40.74 86.4c3.88,8.36 7.46,15.52 10.74,21.49 3.28,5.97 7.31,12.39 12.09,19.25l-131.16 0 -52.38 -127.13 -35.36 0zm63.57 -49.24c9.85,0 16.19,-1.72 19.02,-5.15 2.83,-3.36 4.25,-10.3 4.25,-20.67l0 -19.1c0,-11.27 -1.42,-18.73 -4.25,-22.23 -2.84,-3.58 -10.22,-5.37 -22.16,-5.37l-60.43 0 0 72.52 63.57 0zm302.16 49.24l0 82.82c0,8.95 0.97,16.94 2.91,23.95 1.94,7.01 5.15,13.8 9.62,20.37l-138.32 0c4.18,-5.97 7.31,-12.91 9.4,-20.82 2.09,-7.83 3.13,-15.67 3.13,-23.43l0 -209.65c0,-8.95 -0.97,-16.93 -2.91,-23.87 -1.94,-7.01 -5.15,-13.8 -9.63,-20.37l245.76 0c25.07,0 44.54,4.33 58.42,12.98 13.88,8.58 20.82,25 20.82,49.09l0 63.86c0,15.15 -2.83,26.56 -8.51,34.1 -5.67,7.61 -15.22,11.41 -28.65,11.41l-6.72 -0.45 40.74 86.4c3.88,8.36 7.46,15.52 10.74,21.49 3.28,5.97 7.31,12.39 12.09,19.25l-131.16 0 -52.38 -127.13 -35.36 0zm63.57 -49.24c9.85,0 16.19,-1.72 19.02,-5.15 2.83,-3.36 4.25,-10.3 4.25,-20.67l0 -19.1c0,-11.27 -1.42,-18.73 -4.25,-22.23 -2.84,-3.58 -10.22,-5.37 -22.16,-5.37l-60.43 0 0 72.52 63.57 0zm410.04 -121.76l104.75 263.29c5.08,11.86 12.84,23.5 23.28,34.84l-150.41 0c5.07,-5.97 7.61,-12.68 7.61,-20.15 0,-9.55 -2.76,-20.14 -8.28,-31.78 -5.45,-11.64 -9.85,-21.19 -13.13,-28.65l-121.91 0 -18.73 40.74c-1.64,3.28 -2.98,6.49 -4.1,9.63 -1.12,3.13 -1.71,6.34 -1.71,9.62 0,2.98 0.52,6.27 1.57,9.85 1.04,3.58 2.46,7.16 4.25,10.74l-83.71 0c6.56,-7.76 12.91,-16.42 19.02,-25.89 6.12,-9.55 11.71,-19.55 16.79,-29.99l105.2 -224.34c-3.28,-7.16 -7.31,-13.13 -12.09,-17.91l131.61 0zm-94.46 76.99l-41.63 92.22 79.68 0 -38.05 -92.22z"/>
   <path id="1" class="fil5" d="M1080.81 110.6c-6.86,-3.88 -14.02,-6.34 -21.48,-7.38 -7.46,-1.05 -16.42,-1.57 -26.86,-1.57l-113.25 0c-12.83,0 -20.97,2.53 -24.4,7.61 -3.43,5.07 -5.15,14.1 -5.15,27.23l0 129.97c0,13.13 1.71,22.16 5.15,27.23 3.43,5.08 11.56,7.61 24.4,7.61l32.23 0c10.15,0 16.56,-2.24 19.25,-6.79 2.68,-4.48 4.03,-12.24 4.03,-23.35l0 -51.78 -28.42 0c-7.16,0 -13.43,0.45 -18.65,1.34 -5.3,0.9 -11.04,2.68 -17.38,5.37l0 -54.16 189.35 0c-4.48,6.27 -7.68,13.06 -9.63,20.44 -1.94,7.31 -2.91,15.29 -2.91,23.95l0 89.75c0,8.73 0.97,16.71 2.91,24.03 1.94,7.38 5.15,14.17 9.63,20.44l-98.93 0c-1.19,-4.78 -2.24,-10.37 -3.13,-16.79 -0.89,-6.42 -1.64,-11.71 -2.24,-15.89 0,14.02 -4.55,22.98 -13.65,26.86 -9.1,3.88 -22.31,5.82 -39.62,5.82l-86.4 0c-25.07,0 -44.54,-4.4 -58.42,-13.21 -13.88,-8.8 -20.82,-25.07 -20.82,-48.94l0 -174.28c0,-23.58 7.09,-39.69 21.26,-48.5 14.18,-8.8 33.5,-13.21 57.97,-13.21l215.32 0 9.85 58.19zm273.51 -58.19l104.75 263.29c5.08,11.86 12.84,23.5 23.28,34.84l-150.41 0c5.07,-5.97 7.61,-12.68 7.61,-20.15 0,-9.55 -2.76,-20.14 -8.28,-31.78 -5.45,-11.64 -9.85,-21.19 -13.13,-28.65l-121.91 0 -18.73 40.74c-1.64,3.28 -2.98,6.49 -4.1,9.63 -1.12,3.13 -1.71,6.34 -1.71,9.62 0,2.98 0.52,6.27 1.57,9.85 1.04,3.58 2.46,7.16 4.25,10.74l-83.71 0c6.56,-7.76 12.91,-16.42 19.02,-25.89 6.12,-9.55 11.71,-19.55 16.79,-29.99l105.2 -224.34c-3.28,-7.16 -7.31,-13.13 -12.09,-17.91l131.61 0zm-94.46 76.99l-41.63 92.22 79.68 0 -38.05 -92.22zm363.04 94.01l0 82.82c0,8.95 0.97,16.94 2.91,23.95 1.94,7.01 5.15,13.8 9.62,20.37l-138.32 0c4.18,-5.97 7.31,-12.91 9.4,-20.82 2.09,-7.83 3.13,-15.67 3.13,-23.43l0 -209.65c0,-8.95 -0.97,-16.93 -2.91,-23.87 -1.94,-7.01 -5.15,-13.8 -9.63,-20.37l245.76 0c25.07,0 44.54,4.33 58.42,12.98 13.88,8.58 20.82,25 20.82,49.09l0 63.86c0,15.15 -2.83,26.56 -8.51,34.1 -5.67,7.61 -15.22,11.41 -28.65,11.41l-6.72 -0.45 40.74 86.4c3.88,8.36 7.46,15.52 10.74,21.49 3.28,5.97 7.31,12.39 12.09,19.25l-131.16 0 -52.38 -127.13 -35.36 0zm63.57 -49.24c9.85,0 16.19,-1.72 19.02,-5.15 2.83,-3.36 4.25,-10.3 4.25,-20.67l0 -19.1c0,-11.27 -1.42,-18.73 -4.25,-22.23 -2.84,-3.58 -10.22,-5.37 -22.16,-5.37l-60.43 0 0 72.52 63.57 0zm302.16 49.24l0 82.82c0,8.95 0.97,16.94 2.91,23.95 1.94,7.01 5.15,13.8 9.62,20.37l-138.32 0c4.18,-5.97 7.31,-12.91 9.4,-20.82 2.09,-7.83 3.13,-15.67 3.13,-23.43l0 -209.65c0,-8.95 -0.97,-16.93 -2.91,-23.87 -1.94,-7.01 -5.15,-13.8 -9.63,-20.37l245.76 0c25.07,0 44.54,4.33 58.42,12.98 13.88,8.58 20.82,25 20.82,49.09l0 63.86c0,15.15 -2.83,26.56 -8.51,34.1 -5.67,7.61 -15.22,11.41 -28.65,11.41l-6.72 -0.45 40.74 86.4c3.88,8.36 7.46,15.52 10.74,21.49 3.28,5.97 7.31,12.39 12.09,19.25l-131.16 0 -52.38 -127.13 -35.36 0zm63.57 -49.24c9.85,0 16.19,-1.72 19.02,-5.15 2.83,-3.36 4.25,-10.3 4.25,-20.67l0 -19.1c0,-11.27 -1.42,-18.73 -4.25,-22.23 -2.84,-3.58 -10.22,-5.37 -22.16,-5.37l-60.43 0 0 72.52 63.57 0zm410.04 -121.76l104.75 263.29c5.08,11.86 12.84,23.5 23.28,34.84l-150.41 0c5.07,-5.97 7.61,-12.68 7.61,-20.15 0,-9.55 -2.76,-20.14 -8.28,-31.78 -5.45,-11.64 -9.85,-21.19 -13.13,-28.65l-121.91 0 -18.73 40.74c-1.64,3.28 -2.98,6.49 -4.1,9.63 -1.12,3.13 -1.71,6.34 -1.71,9.62 0,2.98 0.52,6.27 1.57,9.85 1.04,3.58 2.46,7.16 4.25,10.74l-83.71 0c6.56,-7.76 12.91,-16.42 19.02,-25.89 6.12,-9.55 11.71,-19.55 16.79,-29.99l105.2 -224.34c-3.28,-7.16 -7.31,-13.13 -12.09,-17.91l131.61 0zm-94.46 76.99l-41.63 92.22 79.68 0 -38.05 -92.22z"/>
  </g>
  <g>
   <path class="fil4 str2" d="M954.69 486.29c-4.02,-2.27 -8.22,-3.71 -12.58,-4.33 -4.37,-0.61 -9.61,-0.91 -15.73,-0.91l-66.33 0c-7.51,0 -12.28,1.48 -14.29,4.46 -2.01,2.97 -3.01,8.25 -3.01,15.95l0 76.11c0,7.69 1,12.98 3.01,15.95 2.01,2.97 6.77,4.46 14.29,4.46l18.88 0c5.94,0 9.7,-1.31 11.27,-3.97 1.57,-2.62 2.36,-7.17 2.36,-13.68l0 -30.32 -16.65 0c-4.19,0 -7.86,0.26 -10.92,0.79 -3.1,0.52 -6.47,1.57 -10.18,3.15l0 -31.72 110.89 0c-2.62,3.67 -4.5,7.65 -5.64,11.97 -1.14,4.28 -1.7,8.96 -1.7,14.02l0 52.56c0,5.11 0.57,9.79 1.7,14.07 1.14,4.33 3.02,8.3 5.64,11.97l-57.94 0c-0.7,-2.8 -1.31,-6.07 -1.83,-9.83 -0.52,-3.76 -0.96,-6.86 -1.31,-9.3 0,8.21 -2.67,13.46 -8,15.73 -5.33,2.27 -13.06,3.41 -23.2,3.41l-50.6 0c-14.68,0 -26.09,-2.58 -34.21,-7.73 -8.13,-5.15 -12.19,-14.68 -12.19,-28.66l0 -102.07c0,-13.81 4.15,-23.25 12.45,-28.4 8.3,-5.15 19.62,-7.73 33.95,-7.73l126.1 0 5.77 34.08zm100.4 36.97l53.48 0c5.59,0 10.09,-0.22 13.5,-0.66 3.41,-0.43 7.21,-1.53 11.4,-3.28l0 36.97c-2.62,-1.92 -5.55,-3.19 -8.78,-3.8 -3.24,-0.61 -6.95,-0.92 -11.14,-0.92l-58.46 0 0 46.4 64.75 0c3.15,0 6.12,-0.3 8.91,-0.92 2.8,-0.61 8.13,-2.31 15.99,-5.11l-5.77 34.87 -157.56 0c2.45,-3.49 4.28,-7.56 5.51,-12.19 1.22,-4.59 1.83,-9.18 1.83,-13.72l0 -122.78c0,-5.24 -0.57,-9.92 -1.7,-13.98 -1.14,-4.11 -3.02,-8.08 -5.64,-11.93l153.89 0 4.98 33.03c-4.37,-1.57 -9.05,-2.67 -14.02,-3.28 -4.98,-0.61 -10.53,-0.91 -16.65,-0.91l-54.53 0 0 42.21zm175.65 29.1l0 48.5c0,5.24 0.57,9.92 1.71,14.02 1.14,4.11 3.01,8.08 5.64,11.93l-81.01 0c2.45,-3.49 4.28,-7.56 5.51,-12.19 1.22,-4.59 1.83,-9.18 1.83,-13.72l0 -122.78c0,-5.24 -0.57,-9.92 -1.71,-13.98 -1.14,-4.11 -3.01,-8.08 -5.63,-11.93l143.93 0c14.68,0 26.08,2.53 34.21,7.6 8.13,5.02 12.19,14.64 12.19,28.75l0 37.4c0,8.87 -1.66,15.55 -4.98,19.97 -3.32,4.46 -8.91,6.69 -16.78,6.69l-3.93 -0.26 23.86 50.6c2.28,4.89 4.37,9.09 6.29,12.58 1.92,3.49 4.28,7.25 7.08,11.27l-76.81 0 -30.67 -74.45 -20.71 0zm37.23 -28.84c5.77,0 9.48,-1 11.14,-3.01 1.66,-1.97 2.49,-6.03 2.49,-12.1l0 -11.19c0,-6.6 -0.83,-10.96 -2.49,-13.02 -1.66,-2.1 -5.99,-3.15 -12.98,-3.15l-35.39 0 0 42.47 37.23 0zm240.14 -71.31l61.35 154.19c2.97,6.95 7.52,13.76 13.63,20.4l-88.09 0c2.97,-3.49 4.46,-7.43 4.46,-11.8 0,-5.59 -1.62,-11.8 -4.85,-18.61 -3.19,-6.82 -5.77,-12.41 -7.69,-16.78l-71.39 0 -10.96 23.86c-0.96,1.92 -1.75,3.8 -2.41,5.63 -0.65,1.84 -1,3.71 -1,5.64 0,1.75 0.31,3.67 0.92,5.77 0.61,2.1 1.44,4.19 2.49,6.29l-49.03 0c3.85,-4.54 7.56,-9.61 11.14,-15.16 3.58,-5.59 6.86,-11.44 9.83,-17.56l61.61 -131.39c-1.92,-4.19 -4.28,-7.69 -7.08,-10.49l77.07 0zm-55.32 45.09l-24.38 54 46.66 0 -22.29 -54zm146.02 103.59l0 -122.78c0,-5.24 -0.57,-9.92 -1.7,-13.98 -1.14,-4.11 -3.02,-8.08 -5.64,-11.93l144.19 0c15.38,0 26.69,4.46 33.95,13.37 7.25,8.87 10.88,21.1 10.88,36.61l0 74.63c0,15.51 -3.54,27.74 -10.62,36.61 -7.08,8.91 -18.48,13.37 -34.21,13.37l-144.19 0c2.45,-3.49 4.28,-7.56 5.51,-12.19 1.22,-4.59 1.83,-9.18 1.83,-13.72zm98.05 -2.93c7.34,0 12.02,-1.48 14.03,-4.46 2.01,-2.97 3.01,-8.26 3.01,-15.95l0 -76.11c0,-7.86 -0.96,-13.2 -2.88,-16.08 -1.92,-2.89 -6.64,-4.33 -14.16,-4.33l-31.72 0 0 116.92 31.72 0zm250.63 -145.76c15.38,0 26.69,4.46 33.95,13.37 7.25,8.87 10.88,21.1 10.88,36.61l0 74.63c0,7.47 -0.61,14.24 -1.83,20.27 -1.23,6.03 -5.07,12.5 -11.53,19.36 -6.47,6.9 -16.96,10.35 -31.46,10.35l-101.2 0c-15.55,0 -26.92,-4.41 -34.08,-13.24 -7.17,-8.78 -10.75,-21.06 -10.75,-36.74l0 -74.63c0,-7.65 0.61,-14.46 1.84,-20.4 1.22,-5.94 5.07,-12.37 11.53,-19.23 6.47,-6.9 16.95,-10.35 31.46,-10.35l101.2 0zm-79.7 125.36c0,7.69 1,12.98 3.01,15.95 2.01,2.97 6.77,4.46 14.29,4.46l23.59 0c7.52,0 12.28,-1.48 14.29,-4.46 2.01,-2.97 3.01,-8.26 3.01,-15.95l0 -76.11c0,-7.69 -1,-12.98 -3.01,-15.95 -2.01,-2.97 -6.77,-4.46 -14.29,-4.46l-23.59 0c-7.51,0 -12.28,1.48 -14.29,4.46 -2.01,2.97 -3.01,8.25 -3.01,15.95l0 76.11zm221 -25.21l0 48.5c0,5.24 0.57,9.92 1.71,14.02 1.14,4.11 3.01,8.08 5.64,11.93l-81.01 0c2.45,-3.49 4.28,-7.56 5.51,-12.19 1.22,-4.59 1.83,-9.18 1.83,-13.72l0 -122.78c0,-5.24 -0.57,-9.92 -1.71,-13.98 -1.14,-4.11 -3.01,-8.08 -5.63,-11.93l143.93 0c14.68,0 26.08,2.53 34.21,7.6 8.13,5.02 12.19,14.64 12.19,28.75l0 37.4c0,8.87 -1.66,15.55 -4.98,19.97 -3.32,4.46 -8.91,6.69 -16.78,6.69l-3.93 -0.26 23.86 50.6c2.28,4.89 4.37,9.09 6.29,12.58 1.92,3.49 4.28,7.25 7.08,11.27l-76.81 0 -30.67 -74.45 -20.71 0zm37.23 -28.84c5.77,0 9.48,-1 11.14,-3.01 1.66,-1.97 2.49,-6.03 2.49,-12.1l0 -11.19c0,-6.6 -0.83,-10.96 -2.49,-13.02 -1.66,-2.1 -5.99,-3.15 -12.98,-3.15l-35.39 0 0 42.47 37.23 0zm180.36 -0.26l53.48 0c5.59,0 10.09,-0.22 13.5,-0.66 3.41,-0.43 7.21,-1.53 11.4,-3.28l0 36.97c-2.62,-1.92 -5.55,-3.19 -8.78,-3.8 -3.24,-0.61 -6.95,-0.92 -11.14,-0.92l-58.46 0 0 46.4 64.75 0c3.15,0 6.12,-0.3 8.91,-0.92 2.8,-0.61 8.13,-2.31 15.99,-5.11l-5.77 34.87 -157.56 0c2.45,-3.49 4.28,-7.56 5.51,-12.19 1.22,-4.59 1.83,-9.18 1.83,-13.72l0 -122.78c0,-5.24 -0.57,-9.92 -1.7,-13.98 -1.14,-4.11 -3.02,-8.08 -5.64,-11.93l153.89 0 4.98 33.03c-4.37,-1.57 -9.05,-2.67 -14.02,-3.28 -4.98,-0.61 -10.53,-0.91 -16.65,-0.91l-54.53 0 0 42.21zm267.67 -35.39c-3.85,-2.62 -8.08,-4.41 -12.72,-5.38 -4.63,-0.96 -9.83,-1.44 -15.6,-1.44l-60.3 0c-3.84,0 -6.77,0.61 -8.78,1.83 -2.01,1.18 -3.02,3.63 -3.02,7.25l0 5.94c0,4.67 0.96,7.6 2.89,8.7 1.92,1.14 5.59,1.7 11.01,1.7l42.99 0c15.56,0 27.18,2.4 34.87,7.21 7.69,4.81 11.53,14.55 11.53,29.23l0 47.71c0,13.63 -4.15,23.07 -12.45,28.31 -8.3,5.24 -19.62,7.86 -33.95,7.86l-115.87 0 -6.03 -35.13c4.54,2.62 9.48,4.33 14.81,5.11 5.33,0.78 11.23,1.18 17.7,1.18l5.24 0 50.86 0 4.98 0c3.67,0 6.16,-0.66 7.47,-1.96 1.31,-1.31 1.97,-3.71 1.97,-7.21l0 -5.51c0,-3.85 -0.48,-6.6 -1.44,-8.26 -0.96,-1.66 -3.1,-2.49 -6.42,-2.49l-49.29 0c-15.9,0 -27.61,-2.32 -35.13,-6.95 -7.52,-4.58 -11.27,-14.33 -11.27,-29.14l0 -47.89c0,-13.59 4.19,-23.07 12.58,-28.35 8.39,-5.33 19.66,-8 33.82,-8l113.25 0 6.29 35.65z"/>
   <path id="1" class="fil6" d="M954.69 486.29c-4.02,-2.27 -8.22,-3.71 -12.58,-4.33 -4.37,-0.61 -9.61,-0.91 -15.73,-0.91l-66.33 0c-7.51,0 -12.28,1.48 -14.29,4.46 -2.01,2.97 -3.01,8.25 -3.01,15.95l0 76.11c0,7.69 1,12.98 3.01,15.95 2.01,2.97 6.77,4.46 14.29,4.46l18.88 0c5.94,0 9.7,-1.31 11.27,-3.97 1.57,-2.62 2.36,-7.17 2.36,-13.68l0 -30.32 -16.65 0c-4.19,0 -7.86,0.26 -10.92,0.79 -3.1,0.52 -6.47,1.57 -10.18,3.15l0 -31.72 110.89 0c-2.62,3.67 -4.5,7.65 -5.64,11.97 -1.14,4.28 -1.7,8.96 -1.7,14.02l0 52.56c0,5.11 0.57,9.79 1.7,14.07 1.14,4.33 3.02,8.3 5.64,11.97l-57.94 0c-0.7,-2.8 -1.31,-6.07 -1.83,-9.83 -0.52,-3.76 -0.96,-6.86 -1.31,-9.3 0,8.21 -2.67,13.46 -8,15.73 -5.33,2.27 -13.06,3.41 -23.2,3.41l-50.6 0c-14.68,0 -26.09,-2.58 -34.21,-7.73 -8.13,-5.15 -12.19,-14.68 -12.19,-28.66l0 -102.07c0,-13.81 4.15,-23.25 12.45,-28.4 8.3,-5.15 19.62,-7.73 33.95,-7.73l126.1 0 5.77 34.08zm100.4 36.97l53.48 0c5.59,0 10.09,-0.22 13.5,-0.66 3.41,-0.43 7.21,-1.53 11.4,-3.28l0 36.97c-2.62,-1.92 -5.55,-3.19 -8.78,-3.8 -3.24,-0.61 -6.95,-0.92 -11.14,-0.92l-58.46 0 0 46.4 64.75 0c3.15,0 6.12,-0.3 8.91,-0.92 2.8,-0.61 8.13,-2.31 15.99,-5.11l-5.77 34.87 -157.56 0c2.45,-3.49 4.28,-7.56 5.51,-12.19 1.22,-4.59 1.83,-9.18 1.83,-13.72l0 -122.78c0,-5.24 -0.57,-9.92 -1.7,-13.98 -1.14,-4.11 -3.02,-8.08 -5.64,-11.93l153.89 0 4.98 33.03c-4.37,-1.57 -9.05,-2.67 -14.02,-3.28 -4.98,-0.61 -10.53,-0.91 -16.65,-0.91l-54.53 0 0 42.21zm175.65 29.1l0 48.5c0,5.24 0.57,9.92 1.71,14.02 1.14,4.11 3.01,8.08 5.64,11.93l-81.01 0c2.45,-3.49 4.28,-7.56 5.51,-12.19 1.22,-4.59 1.83,-9.18 1.83,-13.72l0 -122.78c0,-5.24 -0.57,-9.92 -1.71,-13.98 -1.14,-4.11 -3.01,-8.08 -5.63,-11.93l143.93 0c14.68,0 26.08,2.53 34.21,7.6 8.13,5.02 12.19,14.64 12.19,28.75l0 37.4c0,8.87 -1.66,15.55 -4.98,19.97 -3.32,4.46 -8.91,6.69 -16.78,6.69l-3.93 -0.26 23.86 50.6c2.28,4.89 4.37,9.09 6.29,12.58 1.92,3.49 4.28,7.25 7.08,11.27l-76.81 0 -30.67 -74.45 -20.71 0zm37.23 -28.84c5.77,0 9.48,-1 11.14,-3.01 1.66,-1.97 2.49,-6.03 2.49,-12.1l0 -11.19c0,-6.6 -0.83,-10.96 -2.49,-13.02 -1.66,-2.1 -5.99,-3.15 -12.98,-3.15l-35.39 0 0 42.47 37.23 0zm240.14 -71.31l61.35 154.19c2.97,6.95 7.52,13.76 13.63,20.4l-88.09 0c2.97,-3.49 4.46,-7.43 4.46,-11.8 0,-5.59 -1.62,-11.8 -4.85,-18.61 -3.19,-6.82 -5.77,-12.41 -7.69,-16.78l-71.39 0 -10.96 23.86c-0.96,1.92 -1.75,3.8 -2.41,5.63 -0.65,1.84 -1,3.71 -1,5.64 0,1.75 0.31,3.67 0.92,5.77 0.61,2.1 1.44,4.19 2.49,6.29l-49.03 0c3.85,-4.54 7.56,-9.61 11.14,-15.16 3.58,-5.59 6.86,-11.44 9.83,-17.56l61.61 -131.39c-1.92,-4.19 -4.28,-7.69 -7.08,-10.49l77.07 0zm-55.32 45.09l-24.38 54 46.66 0 -22.29 -54zm146.02 103.59l0 -122.78c0,-5.24 -0.57,-9.92 -1.7,-13.98 -1.14,-4.11 -3.02,-8.08 -5.64,-11.93l144.19 0c15.38,0 26.69,4.46 33.95,13.37 7.25,8.87 10.88,21.1 10.88,36.61l0 74.63c0,15.51 -3.54,27.74 -10.62,36.61 -7.08,8.91 -18.48,13.37 -34.21,13.37l-144.19 0c2.45,-3.49 4.28,-7.56 5.51,-12.19 1.22,-4.59 1.83,-9.18 1.83,-13.72zm98.05 -2.93c7.34,0 12.02,-1.48 14.03,-4.46 2.01,-2.97 3.01,-8.26 3.01,-15.95l0 -76.11c0,-7.86 -0.96,-13.2 -2.88,-16.08 -1.92,-2.89 -6.64,-4.33 -14.16,-4.33l-31.72 0 0 116.92 31.72 0zm250.63 -145.76c15.38,0 26.69,4.46 33.95,13.37 7.25,8.87 10.88,21.1 10.88,36.61l0 74.63c0,7.47 -0.61,14.24 -1.83,20.27 -1.23,6.03 -5.07,12.5 -11.53,19.36 -6.47,6.9 -16.96,10.35 -31.46,10.35l-101.2 0c-15.55,0 -26.92,-4.41 -34.08,-13.24 -7.17,-8.78 -10.75,-21.06 -10.75,-36.74l0 -74.63c0,-7.65 0.61,-14.46 1.84,-20.4 1.22,-5.94 5.07,-12.37 11.53,-19.23 6.47,-6.9 16.95,-10.35 31.46,-10.35l101.2 0zm-79.7 125.36c0,7.69 1,12.98 3.01,15.95 2.01,2.97 6.77,4.46 14.29,4.46l23.59 0c7.52,0 12.28,-1.48 14.29,-4.46 2.01,-2.97 3.01,-8.26 3.01,-15.95l0 -76.11c0,-7.69 -1,-12.98 -3.01,-15.95 -2.01,-2.97 -6.77,-4.46 -14.29,-4.46l-23.59 0c-7.51,0 -12.28,1.48 -14.29,4.46 -2.01,2.97 -3.01,8.25 -3.01,15.95l0 76.11zm221 -25.21l0 48.5c0,5.24 0.57,9.92 1.71,14.02 1.14,4.11 3.01,8.08 5.64,11.93l-81.01 0c2.45,-3.49 4.28,-7.56 5.51,-12.19 1.22,-4.59 1.83,-9.18 1.83,-13.72l0 -122.78c0,-5.24 -0.57,-9.92 -1.71,-13.98 -1.14,-4.11 -3.01,-8.08 -5.63,-11.93l143.93 0c14.68,0 26.08,2.53 34.21,7.6 8.13,5.02 12.19,14.64 12.19,28.75l0 37.4c0,8.87 -1.66,15.55 -4.98,19.97 -3.32,4.46 -8.91,6.69 -16.78,6.69l-3.93 -0.26 23.86 50.6c2.28,4.89 4.37,9.09 6.29,12.58 1.92,3.49 4.28,7.25 7.08,11.27l-76.81 0 -30.67 -74.45 -20.71 0zm37.23 -28.84c5.77,0 9.48,-1 11.14,-3.01 1.66,-1.97 2.49,-6.03 2.49,-12.1l0 -11.19c0,-6.6 -0.83,-10.96 -2.49,-13.02 -1.66,-2.1 -5.99,-3.15 -12.98,-3.15l-35.39 0 0 42.47 37.23 0zm180.36 -0.26l53.48 0c5.59,0 10.09,-0.22 13.5,-0.66 3.41,-0.43 7.21,-1.53 11.4,-3.28l0 36.97c-2.62,-1.92 -5.55,-3.19 -8.78,-3.8 -3.24,-0.61 -6.95,-0.92 -11.14,-0.92l-58.46 0 0 46.4 64.75 0c3.15,0 6.12,-0.3 8.91,-0.92 2.8,-0.61 8.13,-2.31 15.99,-5.11l-5.77 34.87 -157.56 0c2.45,-3.49 4.28,-7.56 5.51,-12.19 1.22,-4.59 1.83,-9.18 1.83,-13.72l0 -122.78c0,-5.24 -0.57,-9.92 -1.7,-13.98 -1.14,-4.11 -3.02,-8.08 -5.64,-11.93l153.89 0 4.98 33.03c-4.37,-1.57 -9.05,-2.67 -14.02,-3.28 -4.98,-0.61 -10.53,-0.91 -16.65,-0.91l-54.53 0 0 42.21zm267.67 -35.39c-3.85,-2.62 -8.08,-4.41 -12.72,-5.38 -4.63,-0.96 -9.83,-1.44 -15.6,-1.44l-60.3 0c-3.84,0 -6.77,0.61 -8.78,1.83 -2.01,1.18 -3.02,3.63 -3.02,7.25l0 5.94c0,4.67 0.96,7.6 2.89,8.7 1.92,1.14 5.59,1.7 11.01,1.7l42.99 0c15.56,0 27.18,2.4 34.87,7.21 7.69,4.81 11.53,14.55 11.53,29.23l0 47.71c0,13.63 -4.15,23.07 -12.45,28.31 -8.3,5.24 -19.62,7.86 -33.95,7.86l-115.87 0 -6.03 -35.13c4.54,2.62 9.48,4.33 14.81,5.11 5.33,0.78 11.23,1.18 17.7,1.18l5.24 0 50.86 0 4.98 0c3.67,0 6.16,-0.66 7.47,-1.96 1.31,-1.31 1.97,-3.71 1.97,-7.21l0 -5.51c0,-3.85 -0.48,-6.6 -1.44,-8.26 -0.96,-1.66 -3.1,-2.49 -6.42,-2.49l-49.29 0c-15.9,0 -27.61,-2.32 -35.13,-6.95 -7.52,-4.58 -11.27,-14.33 -11.27,-29.14l0 -47.89c0,-13.59 4.19,-23.07 12.58,-28.35 8.39,-5.33 19.66,-8 33.82,-8l113.25 0 6.29 35.65z"/>
  </g>
 </g>
</svg>
