<?xml version="1.0" encoding="UTF-8"?>
<!DOCTYPE svg PUBLIC "-//W3C//DTD SVG 1.1//EN" "http://www.w3.org/Graphics/SVG/1.1/DTD/svg11.dtd">
<!-- Creator: CorelDRAW 2020 (64 Bit) -->
<svg xmlns="http://www.w3.org/2000/svg" xml:space="preserve" width="247.695mm" height="64.2386mm" version="1.1" style="shape-rendering:geometricPrecision; text-rendering:geometricPrecision; image-rendering:optimizeQuality; fill-rule:evenodd; clip-rule:evenodd"
viewBox="0 0 982.35 254.77"
 xmlns:xlink="http://www.w3.org/1999/xlink"
 xmlns:xodm="http://www.corel.com/coreldraw/odm/2003">
 <defs>
  <style type="text/css">
   <![CDATA[
    .str0 {stroke:#FFC802;stroke-width:0.79;stroke-miterlimit:22.9256}
    .str2 {stroke:black;stroke-width:8.78;stroke-linecap:round;stroke-linejoin:round;stroke-miterlimit:22.9256}
    .str1 {stroke:black;stroke-width:15;stroke-linecap:round;stroke-linejoin:round;stroke-miterlimit:22.9256}
    .fil2 {fill:none}
    .fil5 {fill:none;fill-rule:nonzero}
    .fil3 {fill:black}
    .fil0 {fill:#F4811D}
    .fil1 {fill:#FFC802}
    .fil6 {fill:url(#id1);fill-rule:nonzero}
    .fil4 {fill:url(#id2);fill-rule:nonzero}
   ]]>
  </style>
    <clipPath id="id0">
     <path d="M127.38 0c70.35,0 127.38,57.03 127.38,127.38 0,70.35 -57.03,127.38 -127.38,127.38 -70.35,0 -127.38,-57.03 -127.38,-127.38 0,-70.35 57.03,-127.38 127.38,-127.38z"/>
    </clipPath>
  <linearGradient id="id1" gradientUnits="userSpaceOnUse" x1="629.64" y1="237.48" x2="631.9" y2="168.23">
   <stop offset="0" style="stop-opacity:1; stop-color:#F4811D"/>
   <stop offset="1" style="stop-opacity:1; stop-color:#FFC802"/>
  </linearGradient>
  <linearGradient id="id2" gradientUnits="userSpaceOnUse" xlink:href="#id1" x1="630.01" y1="134.73" x2="636.41" y2="16.56">
  </linearGradient>
 </defs>
 <g id="Camada_x0020_1">
  <metadata id="CorelCorpID_0Corel-Layer"/>
  <g id="_1691822348272">
   <path class="fil0" d="M127.38 0c70.35,0 127.38,57.03 127.38,127.38 0,70.35 -57.03,127.38 -127.38,127.38 -70.35,0 -127.38,-57.03 -127.38,-127.38 0,-70.35 57.03,-127.38 127.38,-127.38z"/>
   <g>
   </g>
   <g style="clip-path:url(#id0)">
    <g id="_1691822353504">
     <rect class="fil1 str0" x="-107.78" y="124.11" width="489" height="139.51"/>
    </g>
   </g>
   <path class="fil2" d="M127.38 0c70.35,0 127.38,57.03 127.38,127.38 0,70.35 -57.03,127.38 -127.38,127.38 -70.35,0 -127.38,-57.03 -127.38,-127.38 0,-70.35 57.03,-127.38 127.38,-127.38z"/>
   <path class="fil2" d="M127.38 0c70.35,0 127.38,57.03 127.38,127.38 0,70.35 -57.03,127.38 -127.38,127.38 -70.35,0 -127.38,-57.03 -127.38,-127.38 0,-70.35 57.03,-127.38 127.38,-127.38z"/>
   <path class="fil3" d="M127.38 8.87c65.46,0 118.52,53.06 118.52,118.52 0,65.46 -53.06,118.52 -118.52,118.52 -65.45,0 -118.52,-53.06 -118.52,-118.52 0,-65.45 53.06,-118.52 118.52,-118.52z"/>
   <path class="fil1" d="M142.67 244.92l-7.83 -99.8 -41.99 1.4 -9.33 -83.52 -31.73 100.78 37.33 1.87 -7.29 71.17c14.03,5.85 29.41,9.08 45.55,9.08 5.18,0 10.29,-0.33 15.29,-0.98l-0 0z"/>
   <path class="fil0" d="M114.78 9.53l8.4 107.13 41.99 -1.4 9.33 83.52 31.73 -100.78 -37.33 -1.87 7.84 -76.52c-15.03,-6.89 -31.74,-10.75 -49.37,-10.75 -4.26,0 -8.46,0.23 -12.6,0.67l0 -0z"/>
   <path class="fil2 str1" d="M406.77 41.62c-2.58,-1.46 -5.28,-2.39 -8.08,-2.78 -2.81,-0.4 -6.18,-0.59 -10.11,-0.59l-42.62 0c-4.83,0 -7.89,0.95 -9.18,2.86 -1.29,1.91 -1.94,5.31 -1.94,10.25l0 48.91c0,4.94 0.64,8.34 1.94,10.25 1.29,1.91 4.35,2.86 9.18,2.86l12.13 0c3.82,0 6.23,-0.84 7.24,-2.55 1.01,-1.69 1.52,-4.61 1.52,-8.79l0 -19.49 -10.7 0c-2.69,0 -5.06,0.17 -7.02,0.5 -1.99,0.34 -4.16,1.01 -6.54,2.02l0 -20.38 71.26 0c-1.69,2.36 -2.89,4.92 -3.62,7.69 -0.73,2.75 -1.1,5.75 -1.1,9.01l0 33.78c0,3.29 0.37,6.29 1.1,9.04 0.73,2.78 1.94,5.33 3.62,7.69l-37.23 0c-0.45,-1.8 -0.84,-3.9 -1.18,-6.32 -0.33,-2.42 -0.62,-4.41 -0.84,-5.98 0,5.28 -1.71,8.65 -5.14,10.11 -3.43,1.46 -8.4,2.19 -14.91,2.19l-32.52 0c-9.44,0 -16.76,-1.66 -21.99,-4.97 -5.22,-3.31 -7.84,-9.44 -7.84,-18.42l0 -65.59c0,-8.87 2.67,-14.94 8,-18.25 5.34,-3.31 12.61,-4.97 21.82,-4.97l81.04 0 3.71 21.9 -0 0zm102.94 -21.9l39.42 99.09c1.91,4.46 4.83,8.84 8.76,13.11l-56.61 0c1.91,-2.25 2.86,-4.77 2.86,-7.58 0,-3.59 -1.04,-7.58 -3.12,-11.96 -2.05,-4.38 -3.71,-7.98 -4.94,-10.78l-45.88 0 -7.05 15.33c-0.62,1.23 -1.12,2.44 -1.54,3.62 -0.42,1.18 -0.64,2.39 -0.64,3.62 0,1.12 0.2,2.36 0.59,3.71 0.39,1.35 0.93,2.69 1.6,4.04l-31.5 0c2.47,-2.92 4.86,-6.18 7.16,-9.74 2.3,-3.59 4.41,-7.36 6.32,-11.29l39.59 -84.43c-1.23,-2.69 -2.75,-4.94 -4.55,-6.74l49.53 0 -0 -0zm-35.55 28.98l-15.67 34.71 29.99 0 -14.32 -34.71 -0 0zm136.63 35.38l0 31.17c0,3.37 0.37,6.38 1.1,9.01 0.73,2.64 1.94,5.19 3.62,7.67l-52.06 0c1.57,-2.25 2.75,-4.86 3.54,-7.84 0.79,-2.95 1.18,-5.9 1.18,-8.82l0 -78.9c0,-3.37 -0.37,-6.37 -1.09,-8.98 -0.73,-2.64 -1.94,-5.19 -3.62,-7.67l92.49 0c9.44,0 16.76,1.63 21.99,4.89 5.22,3.23 7.84,9.41 7.84,18.47l0 24.03c0,5.7 -1.06,10 -3.2,12.83 -2.13,2.86 -5.73,4.29 -10.78,4.29l-2.53 -0.17 15.33 32.52c1.46,3.15 2.81,5.84 4.04,8.09 1.23,2.25 2.75,4.66 4.55,7.24l-49.36 0 -19.71 -47.85 -13.31 0 0 0zm23.92 -18.53c3.71,0 6.09,-0.65 7.16,-1.94 1.07,-1.26 1.6,-3.88 1.6,-7.78l0 -7.19c0,-4.24 -0.53,-7.05 -1.6,-8.37 -1.07,-1.35 -3.85,-2.02 -8.34,-2.02l-22.74 0 0 27.29 23.92 0 -0 0zm113.72 18.53l0 31.17c0,3.37 0.37,6.38 1.1,9.01 0.73,2.64 1.94,5.19 3.62,7.67l-52.06 0c1.57,-2.25 2.75,-4.86 3.54,-7.84 0.79,-2.95 1.18,-5.9 1.18,-8.82l0 -78.9c0,-3.37 -0.37,-6.37 -1.09,-8.98 -0.73,-2.64 -1.94,-5.19 -3.62,-7.67l92.49 0c9.44,0 16.76,1.63 21.99,4.89 5.22,3.23 7.84,9.41 7.84,18.47l0 24.03c0,5.7 -1.06,10 -3.2,12.83 -2.13,2.86 -5.73,4.29 -10.78,4.29l-2.53 -0.17 15.33 32.52c1.46,3.15 2.81,5.84 4.04,8.09 1.23,2.25 2.75,4.66 4.55,7.24l-49.36 0 -19.71 -47.85 -13.31 0 0 0zm23.92 -18.53c3.71,0 6.09,-0.65 7.16,-1.94 1.07,-1.26 1.6,-3.88 1.6,-7.78l0 -7.19c0,-4.24 -0.53,-7.05 -1.6,-8.37 -1.07,-1.35 -3.85,-2.02 -8.34,-2.02l-22.74 0 0 27.29 23.92 0 -0 0zm154.32 -45.82l39.42 99.09c1.91,4.46 4.83,8.84 8.76,13.11l-56.61 0c1.91,-2.25 2.86,-4.77 2.86,-7.58 0,-3.59 -1.04,-7.58 -3.12,-11.96 -2.05,-4.38 -3.71,-7.98 -4.94,-10.78l-45.88 0 -7.05 15.33c-0.62,1.23 -1.12,2.44 -1.54,3.62 -0.42,1.18 -0.64,2.39 -0.64,3.62 0,1.12 0.2,2.36 0.59,3.71 0.39,1.35 0.93,2.69 1.6,4.04l-31.5 0c2.47,-2.92 4.86,-6.18 7.16,-9.74 2.3,-3.59 4.41,-7.36 6.32,-11.29l39.59 -84.43c-1.23,-2.69 -2.75,-4.94 -4.55,-6.74l49.53 0 -0 -0zm-35.55 28.98l-15.67 34.71 29.99 0 -14.32 -34.71 -0 0z"/>
   <path id="_1" class="fil4" d="M406.77 41.62c-2.58,-1.46 -5.28,-2.39 -8.08,-2.78 -2.81,-0.4 -6.18,-0.59 -10.11,-0.59l-42.62 0c-4.83,0 -7.89,0.95 -9.18,2.86 -1.29,1.91 -1.94,5.31 -1.94,10.25l0 48.91c0,4.94 0.64,8.34 1.94,10.25 1.29,1.91 4.35,2.86 9.18,2.86l12.13 0c3.82,0 6.23,-0.84 7.24,-2.55 1.01,-1.69 1.52,-4.61 1.52,-8.79l0 -19.49 -10.7 0c-2.69,0 -5.06,0.17 -7.02,0.5 -1.99,0.34 -4.16,1.01 -6.54,2.02l0 -20.38 71.26 0c-1.69,2.36 -2.89,4.92 -3.62,7.69 -0.73,2.75 -1.1,5.75 -1.1,9.01l0 33.78c0,3.29 0.37,6.29 1.1,9.04 0.73,2.78 1.94,5.33 3.62,7.69l-37.23 0c-0.45,-1.8 -0.84,-3.9 -1.18,-6.32 -0.33,-2.42 -0.62,-4.41 -0.84,-5.98 0,5.28 -1.71,8.65 -5.14,10.11 -3.43,1.46 -8.4,2.19 -14.91,2.19l-32.52 0c-9.44,0 -16.76,-1.66 -21.99,-4.97 -5.22,-3.31 -7.84,-9.44 -7.84,-18.42l0 -65.59c0,-8.87 2.67,-14.94 8,-18.25 5.34,-3.31 12.61,-4.97 21.82,-4.97l81.04 0 3.71 21.9 -0 0zm102.94 -21.9l39.42 99.09c1.91,4.46 4.83,8.84 8.76,13.11l-56.61 0c1.91,-2.25 2.86,-4.77 2.86,-7.58 0,-3.59 -1.04,-7.58 -3.12,-11.96 -2.05,-4.38 -3.71,-7.98 -4.94,-10.78l-45.88 0 -7.05 15.33c-0.62,1.23 -1.12,2.44 -1.54,3.62 -0.42,1.18 -0.64,2.39 -0.64,3.62 0,1.12 0.2,2.36 0.59,3.71 0.39,1.35 0.93,2.69 1.6,4.04l-31.5 0c2.47,-2.92 4.86,-6.18 7.16,-9.74 2.3,-3.59 4.41,-7.36 6.32,-11.29l39.59 -84.43c-1.23,-2.69 -2.75,-4.94 -4.55,-6.74l49.53 0 -0 -0zm-35.55 28.98l-15.67 34.71 29.99 0 -14.32 -34.71 -0 0zm136.63 35.38l0 31.17c0,3.37 0.37,6.38 1.1,9.01 0.73,2.64 1.94,5.19 3.62,7.67l-52.06 0c1.57,-2.25 2.75,-4.86 3.54,-7.84 0.79,-2.95 1.18,-5.9 1.18,-8.82l0 -78.9c0,-3.37 -0.37,-6.37 -1.09,-8.98 -0.73,-2.64 -1.94,-5.19 -3.62,-7.67l92.49 0c9.44,0 16.76,1.63 21.99,4.89 5.22,3.23 7.84,9.41 7.84,18.47l0 24.03c0,5.7 -1.06,10 -3.2,12.83 -2.13,2.86 -5.73,4.29 -10.78,4.29l-2.53 -0.17 15.33 32.52c1.46,3.15 2.81,5.84 4.04,8.09 1.23,2.25 2.75,4.66 4.55,7.24l-49.36 0 -19.71 -47.85 -13.31 0 0 0zm23.92 -18.53c3.71,0 6.09,-0.65 7.16,-1.94 1.07,-1.26 1.6,-3.88 1.6,-7.78l0 -7.19c0,-4.24 -0.53,-7.05 -1.6,-8.37 -1.07,-1.35 -3.85,-2.02 -8.34,-2.02l-22.74 0 0 27.29 23.92 0 -0 0zm113.72 18.53l0 31.17c0,3.37 0.37,6.38 1.1,9.01 0.73,2.64 1.94,5.19 3.62,7.67l-52.06 0c1.57,-2.25 2.75,-4.86 3.54,-7.84 0.79,-2.95 1.18,-5.9 1.18,-8.82l0 -78.9c0,-3.37 -0.37,-6.37 -1.09,-8.98 -0.73,-2.64 -1.94,-5.19 -3.62,-7.67l92.49 0c9.44,0 16.76,1.63 21.99,4.89 5.22,3.23 7.84,9.41 7.84,18.47l0 24.03c0,5.7 -1.06,10 -3.2,12.83 -2.13,2.86 -5.73,4.29 -10.78,4.29l-2.53 -0.17 15.33 32.52c1.46,3.15 2.81,5.84 4.04,8.09 1.23,2.25 2.75,4.66 4.55,7.24l-49.36 0 -19.71 -47.85 -13.31 0 0 0zm23.92 -18.53c3.71,0 6.09,-0.65 7.16,-1.94 1.07,-1.26 1.6,-3.88 1.6,-7.78l0 -7.19c0,-4.24 -0.53,-7.05 -1.6,-8.37 -1.07,-1.35 -3.85,-2.02 -8.34,-2.02l-22.74 0 0 27.29 23.92 0 -0 0zm154.32 -45.82l39.42 99.09c1.91,4.46 4.83,8.84 8.76,13.11l-56.61 0c1.91,-2.25 2.86,-4.77 2.86,-7.58 0,-3.59 -1.04,-7.58 -3.12,-11.96 -2.05,-4.38 -3.71,-7.98 -4.94,-10.78l-45.88 0 -7.05 15.33c-0.62,1.23 -1.12,2.44 -1.54,3.62 -0.42,1.18 -0.64,2.39 -0.64,3.62 0,1.12 0.2,2.36 0.59,3.71 0.39,1.35 0.93,2.69 1.6,4.04l-31.5 0c2.47,-2.92 4.86,-6.18 7.16,-9.74 2.3,-3.59 4.41,-7.36 6.32,-11.29l39.59 -84.43c-1.23,-2.69 -2.75,-4.94 -4.55,-6.74l49.53 0 -0 -0zm-35.55 28.98l-15.67 34.71 29.99 0 -14.32 -34.71 -0 0z"/>
   <path class="fil5 str2" d="M359.3 183.02c-1.51,-0.86 -3.09,-1.4 -4.73,-1.63 -1.65,-0.23 -3.62,-0.34 -5.92,-0.34l-24.96 0c-2.83,0 -4.62,0.56 -5.38,1.68 -0.76,1.12 -1.13,3.11 -1.13,6l0 28.64c0,2.89 0.38,4.89 1.13,6 0.76,1.12 2.55,1.68 5.38,1.68l7.11 0c2.24,0 3.65,-0.49 4.24,-1.49 0.59,-0.99 0.89,-2.7 0.89,-5.15l0 -11.41 -6.27 0c-1.58,0 -2.96,0.1 -4.11,0.3 -1.17,0.2 -2.44,0.59 -3.83,1.19l0 -11.94 41.73 0c-0.99,1.38 -1.69,2.88 -2.12,4.5 -0.43,1.61 -0.64,3.37 -0.64,5.28l0 19.78c0,1.92 0.21,3.69 0.64,5.29 0.43,1.63 1.14,3.12 2.12,4.5l-21.81 0c-0.26,-1.05 -0.49,-2.28 -0.69,-3.7 -0.2,-1.42 -0.36,-2.58 -0.49,-3.5 0,3.09 -1,5.07 -3.01,5.92 -2.01,0.86 -4.92,1.28 -8.73,1.28l-19.04 0c-5.53,0 -9.82,-0.97 -12.88,-2.91 -3.06,-1.94 -4.59,-5.52 -4.59,-10.79l0 -38.41c0,-5.2 1.56,-8.75 4.69,-10.69 3.12,-1.94 7.38,-2.91 12.78,-2.91l47.46 0 2.17 12.83 0 -0.01zm37.79 13.91l20.13 0c2.1,0 3.8,-0.08 5.08,-0.25 1.28,-0.16 2.71,-0.58 4.29,-1.23l0 13.91c-0.99,-0.72 -2.09,-1.2 -3.3,-1.43 -1.22,-0.23 -2.62,-0.35 -4.19,-0.35l-22 0 0 17.46 24.37 0c1.19,0 2.3,-0.11 3.35,-0.35 1.05,-0.23 3.06,-0.87 6.02,-1.92l-2.17 13.12 -59.3 0c0.92,-1.31 1.61,-2.85 2.07,-4.59 0.46,-1.73 0.69,-3.46 0.69,-5.16l0 -46.21c0,-1.97 -0.21,-3.73 -0.64,-5.26 -0.43,-1.55 -1.14,-3.04 -2.12,-4.49l57.92 0 1.87 12.43c-1.65,-0.59 -3.41,-1 -5.28,-1.23 -1.87,-0.23 -3.96,-0.34 -6.27,-0.34l-20.52 0 0 15.89 0 -0zm66.11 10.95l0 18.25c0,1.97 0.21,3.73 0.64,5.28 0.43,1.55 1.13,3.04 2.12,4.49l-30.49 0c0.92,-1.31 1.61,-2.85 2.07,-4.59 0.46,-1.73 0.69,-3.45 0.69,-5.16l0 -46.21c0,-1.97 -0.21,-3.73 -0.64,-5.26 -0.43,-1.55 -1.13,-3.04 -2.12,-4.49l54.17 0c5.52,0 9.82,0.95 12.88,2.86 3.06,1.89 4.59,5.51 4.59,10.82l0 14.08c0,3.34 -0.63,5.85 -1.87,7.52 -1.25,1.68 -3.35,2.52 -6.32,2.52l-1.48 -0.1 8.98 19.04c0.86,1.84 1.64,3.42 2.37,4.73 0.72,1.31 1.61,2.73 2.67,4.24l-28.91 0 -11.54 -28.02 -7.79 0 -0.01 0zm14.01 -10.85c2.17,0 3.57,-0.38 4.19,-1.13 0.63,-0.74 0.94,-2.27 0.94,-4.55l0 -4.21c0,-2.48 -0.31,-4.13 -0.94,-4.9 -0.63,-0.79 -2.25,-1.19 -4.89,-1.19l-13.32 0 0 15.98 14.01 0zm90.38 -26.84l23.09 58.03c1.12,2.62 2.83,5.18 5.13,7.68l-33.15 0c1.12,-1.31 1.68,-2.8 1.68,-4.44 0,-2.1 -0.61,-4.44 -1.83,-7 -1.2,-2.57 -2.17,-4.67 -2.89,-6.32l-26.87 0 -4.13 8.98c-0.36,0.72 -0.66,1.43 -0.91,2.12 -0.24,0.69 -0.38,1.4 -0.38,2.12 0,0.66 0.12,1.38 0.35,2.17 0.23,0.79 0.54,1.58 0.94,2.37l-18.45 0c1.45,-1.71 2.85,-3.62 4.19,-5.71 1.35,-2.1 2.58,-4.31 3.7,-6.61l23.19 -49.45c-0.72,-1.58 -1.61,-2.89 -2.67,-3.95l29.01 0 0 0zm-20.82 16.97l-9.18 20.32 17.56 0 -8.39 -20.32 0 0zm54.96 38.99l0 -46.21c0,-1.97 -0.21,-3.73 -0.64,-5.26 -0.43,-1.55 -1.14,-3.04 -2.12,-4.49l54.27 0c5.79,0 10.05,1.68 12.78,5.03 2.73,3.34 4.09,7.94 4.09,13.78l0 28.09c0,5.84 -1.33,10.44 -4,13.78 -2.66,3.35 -6.96,5.03 -12.88,5.03l-54.27 0c0.92,-1.31 1.61,-2.85 2.07,-4.59 0.46,-1.73 0.69,-3.46 0.69,-5.16l0 0zm36.9 -1.1c2.76,0 4.52,-0.56 5.28,-1.68 0.76,-1.12 1.13,-3.11 1.13,-6l0 -28.64c0,-2.96 -0.36,-4.97 -1.08,-6.05 -0.72,-1.09 -2.5,-1.63 -5.33,-1.63l-11.94 0 0 44 11.94 0 -0 0zm94.32 -54.86c5.79,0 10.05,1.68 12.78,5.03 2.73,3.34 4.09,7.94 4.09,13.78l0 28.09c0,2.81 -0.23,5.36 -0.69,7.63 -0.46,2.27 -1.91,4.7 -4.34,7.29 -2.43,2.6 -6.38,3.9 -11.84,3.9l-38.09 0c-5.85,0 -10.13,-1.66 -12.83,-4.98 -2.7,-3.3 -4.05,-7.93 -4.05,-13.83l0 -28.09c0,-2.88 0.23,-5.44 0.69,-7.68 0.46,-2.24 1.91,-4.66 4.34,-7.24 2.44,-2.6 6.38,-3.9 11.84,-3.9l38.09 0 -0 0zm-30 47.18c0,2.89 0.38,4.89 1.13,6 0.76,1.12 2.55,1.68 5.38,1.68l8.88 0c2.83,0 4.62,-0.56 5.38,-1.68 0.76,-1.12 1.13,-3.11 1.13,-6l0 -28.64c0,-2.89 -0.38,-4.89 -1.13,-6 -0.76,-1.12 -2.55,-1.68 -5.38,-1.68l-8.88 0c-2.83,0 -4.62,0.56 -5.38,1.68 -0.76,1.12 -1.13,3.11 -1.13,6l0 28.64zm83.17 -9.49l0 18.25c0,1.97 0.21,3.73 0.64,5.28 0.43,1.55 1.13,3.04 2.12,4.49l-30.49 0c0.92,-1.31 1.61,-2.85 2.07,-4.59 0.46,-1.73 0.69,-3.46 0.69,-5.16l0 -46.21c0,-1.97 -0.21,-3.73 -0.64,-5.26 -0.43,-1.55 -1.13,-3.04 -2.12,-4.49l54.17 0c5.52,0 9.82,0.95 12.88,2.86 3.06,1.89 4.59,5.51 4.59,10.82l0 14.08c0,3.34 -0.63,5.85 -1.87,7.52 -1.25,1.68 -3.35,2.52 -6.31,2.52l-1.48 -0.1 8.98 19.04c0.86,1.84 1.65,3.42 2.37,4.73 0.72,1.31 1.61,2.73 2.67,4.24l-28.91 0 -11.54 -28.02 -7.8 0 -0.01 0zm14.01 -10.85c2.17,0 3.57,-0.38 4.19,-1.13 0.63,-0.74 0.94,-2.27 0.94,-4.55l0 -4.21c0,-2.48 -0.31,-4.13 -0.94,-4.9 -0.63,-0.79 -2.25,-1.19 -4.89,-1.19l-13.32 0 0 15.98 14.01 0zm67.88 -0.1l20.13 0c2.1,0 3.8,-0.08 5.08,-0.25 1.28,-0.16 2.71,-0.58 4.29,-1.23l0 13.91c-0.99,-0.72 -2.09,-1.2 -3.3,-1.43 -1.22,-0.23 -2.62,-0.35 -4.19,-0.35l-22 0 0 17.46 24.37 0c1.19,0 2.3,-0.11 3.35,-0.35 1.05,-0.23 3.06,-0.87 6.02,-1.92l-2.17 13.12 -59.3 0c0.92,-1.31 1.61,-2.85 2.07,-4.59 0.46,-1.73 0.69,-3.45 0.69,-5.16l0 -46.21c0,-1.97 -0.21,-3.73 -0.64,-5.26 -0.43,-1.55 -1.14,-3.04 -2.12,-4.49l57.92 0 1.87 12.43c-1.65,-0.59 -3.41,-1 -5.28,-1.23 -1.87,-0.23 -3.96,-0.34 -6.27,-0.34l-20.52 0 0 15.89 0 -0zm100.74 -13.32c-1.45,-0.99 -3.04,-1.66 -4.79,-2.02 -1.74,-0.36 -3.7,-0.54 -5.87,-0.54l-22.69 0c-1.44,0 -2.55,0.23 -3.3,0.69 -0.76,0.44 -1.14,1.37 -1.14,2.73l0 2.24c0,1.76 0.36,2.86 1.09,3.27 0.72,0.43 2.1,0.64 4.14,0.64l16.18 0c5.86,0 10.23,0.9 13.12,2.71 2.89,1.81 4.34,5.48 4.34,11l0 17.96c0,5.13 -1.56,8.68 -4.69,10.65 -3.12,1.97 -7.38,2.96 -12.78,2.96l-43.61 0 -2.27 -13.22c1.71,0.99 3.57,1.63 5.57,1.92 2.01,0.29 4.23,0.44 6.66,0.44l1.97 0 19.14 0 1.87 0c1.38,0 2.32,-0.25 2.81,-0.74 0.49,-0.49 0.74,-1.4 0.74,-2.71l0 -2.07c0,-1.45 -0.18,-2.48 -0.54,-3.11 -0.36,-0.63 -1.17,-0.94 -2.42,-0.94l-18.55 0c-5.98,0 -10.39,-0.87 -13.22,-2.62 -2.83,-1.72 -4.24,-5.39 -4.24,-10.97l0 -18.02c0,-5.11 1.58,-8.68 4.73,-10.67 3.16,-2.01 7.4,-3.01 12.73,-3.01l42.62 0 2.37 13.42 0 0.01z"/>
   <path id="_1_0" class="fil6" d="M359.3 183.02c-1.51,-0.86 -3.09,-1.4 -4.73,-1.63 -1.65,-0.23 -3.62,-0.34 -5.92,-0.34l-24.96 0c-2.83,0 -4.62,0.56 -5.38,1.68 -0.76,1.12 -1.13,3.11 -1.13,6l0 28.64c0,2.89 0.38,4.89 1.13,6 0.76,1.12 2.55,1.68 5.38,1.68l7.11 0c2.24,0 3.65,-0.49 4.24,-1.49 0.59,-0.99 0.89,-2.7 0.89,-5.15l0 -11.41 -6.27 0c-1.58,0 -2.96,0.1 -4.11,0.3 -1.17,0.2 -2.44,0.59 -3.83,1.19l0 -11.94 41.73 0c-0.99,1.38 -1.69,2.88 -2.12,4.5 -0.43,1.61 -0.64,3.37 -0.64,5.28l0 19.78c0,1.92 0.21,3.69 0.64,5.29 0.43,1.63 1.14,3.12 2.12,4.5l-21.81 0c-0.26,-1.05 -0.49,-2.28 -0.69,-3.7 -0.2,-1.42 -0.36,-2.58 -0.49,-3.5 0,3.09 -1,5.07 -3.01,5.92 -2.01,0.86 -4.92,1.28 -8.73,1.28l-19.04 0c-5.53,0 -9.82,-0.97 -12.88,-2.91 -3.06,-1.94 -4.59,-5.52 -4.59,-10.79l0 -38.41c0,-5.2 1.56,-8.75 4.69,-10.69 3.12,-1.94 7.38,-2.91 12.78,-2.91l47.46 0 2.17 12.83 0 -0.01zm37.79 13.91l20.13 0c2.1,0 3.8,-0.08 5.08,-0.25 1.28,-0.16 2.71,-0.58 4.29,-1.23l0 13.91c-0.99,-0.72 -2.09,-1.2 -3.3,-1.43 -1.22,-0.23 -2.62,-0.35 -4.19,-0.35l-22 0 0 17.46 24.37 0c1.19,0 2.3,-0.11 3.35,-0.35 1.05,-0.23 3.06,-0.87 6.02,-1.92l-2.17 13.12 -59.3 0c0.92,-1.31 1.61,-2.85 2.07,-4.59 0.46,-1.73 0.69,-3.46 0.69,-5.16l0 -46.21c0,-1.97 -0.21,-3.73 -0.64,-5.26 -0.43,-1.55 -1.14,-3.04 -2.12,-4.49l57.92 0 1.87 12.43c-1.65,-0.59 -3.41,-1 -5.28,-1.23 -1.87,-0.23 -3.96,-0.34 -6.27,-0.34l-20.52 0 0 15.89 0 -0zm66.11 10.95l0 18.25c0,1.97 0.21,3.73 0.64,5.28 0.43,1.55 1.13,3.04 2.12,4.49l-30.49 0c0.92,-1.31 1.61,-2.85 2.07,-4.59 0.46,-1.73 0.69,-3.45 0.69,-5.16l0 -46.21c0,-1.97 -0.21,-3.73 -0.64,-5.26 -0.43,-1.55 -1.13,-3.04 -2.12,-4.49l54.17 0c5.52,0 9.82,0.95 12.88,2.86 3.06,1.89 4.59,5.51 4.59,10.82l0 14.08c0,3.34 -0.63,5.85 -1.87,7.52 -1.25,1.68 -3.35,2.52 -6.32,2.52l-1.48 -0.1 8.98 19.04c0.86,1.84 1.64,3.42 2.37,4.73 0.72,1.31 1.61,2.73 2.67,4.24l-28.91 0 -11.54 -28.02 -7.79 0 -0.01 0zm14.01 -10.85c2.17,0 3.57,-0.38 4.19,-1.13 0.63,-0.74 0.94,-2.27 0.94,-4.55l0 -4.21c0,-2.48 -0.31,-4.13 -0.94,-4.9 -0.63,-0.79 -2.25,-1.19 -4.89,-1.19l-13.32 0 0 15.98 14.01 0zm90.38 -26.84l23.09 58.03c1.12,2.62 2.83,5.18 5.13,7.68l-33.15 0c1.12,-1.31 1.68,-2.8 1.68,-4.44 0,-2.1 -0.61,-4.44 -1.83,-7 -1.2,-2.57 -2.17,-4.67 -2.89,-6.32l-26.87 0 -4.13 8.98c-0.36,0.72 -0.66,1.43 -0.91,2.12 -0.24,0.69 -0.38,1.4 -0.38,2.12 0,0.66 0.12,1.38 0.35,2.17 0.23,0.79 0.54,1.58 0.94,2.37l-18.45 0c1.45,-1.71 2.85,-3.62 4.19,-5.71 1.35,-2.1 2.58,-4.31 3.7,-6.61l23.19 -49.45c-0.72,-1.58 -1.61,-2.89 -2.67,-3.95l29.01 0 0 0zm-20.82 16.97l-9.18 20.32 17.56 0 -8.39 -20.32 0 0zm54.96 38.99l0 -46.21c0,-1.97 -0.21,-3.73 -0.64,-5.26 -0.43,-1.55 -1.14,-3.04 -2.12,-4.49l54.27 0c5.79,0 10.05,1.68 12.78,5.03 2.73,3.34 4.09,7.94 4.09,13.78l0 28.09c0,5.84 -1.33,10.44 -4,13.78 -2.66,3.35 -6.96,5.03 -12.88,5.03l-54.27 0c0.92,-1.31 1.61,-2.85 2.07,-4.59 0.46,-1.73 0.69,-3.46 0.69,-5.16l0 0zm36.9 -1.1c2.76,0 4.52,-0.56 5.28,-1.68 0.76,-1.12 1.13,-3.11 1.13,-6l0 -28.64c0,-2.96 -0.36,-4.97 -1.08,-6.05 -0.72,-1.09 -2.5,-1.63 -5.33,-1.63l-11.94 0 0 44 11.94 0 -0 0zm94.32 -54.86c5.79,0 10.05,1.68 12.78,5.03 2.73,3.34 4.09,7.94 4.09,13.78l0 28.09c0,2.81 -0.23,5.36 -0.69,7.63 -0.46,2.27 -1.91,4.7 -4.34,7.29 -2.43,2.6 -6.38,3.9 -11.84,3.9l-38.09 0c-5.85,0 -10.13,-1.66 -12.83,-4.98 -2.7,-3.3 -4.05,-7.93 -4.05,-13.83l0 -28.09c0,-2.88 0.23,-5.44 0.69,-7.68 0.46,-2.24 1.91,-4.66 4.34,-7.24 2.44,-2.6 6.38,-3.9 11.84,-3.9l38.09 0 -0 0zm-30 47.18c0,2.89 0.38,4.89 1.13,6 0.76,1.12 2.55,1.68 5.38,1.68l8.88 0c2.83,0 4.62,-0.56 5.38,-1.68 0.76,-1.12 1.13,-3.11 1.13,-6l0 -28.64c0,-2.89 -0.38,-4.89 -1.13,-6 -0.76,-1.12 -2.55,-1.68 -5.38,-1.68l-8.88 0c-2.83,0 -4.62,0.56 -5.38,1.68 -0.76,1.12 -1.13,3.11 -1.13,6l0 28.64zm83.17 -9.49l0 18.25c0,1.97 0.21,3.73 0.64,5.28 0.43,1.55 1.13,3.04 2.12,4.49l-30.49 0c0.92,-1.31 1.61,-2.85 2.07,-4.59 0.46,-1.73 0.69,-3.46 0.69,-5.16l0 -46.21c0,-1.97 -0.21,-3.73 -0.64,-5.26 -0.43,-1.55 -1.13,-3.04 -2.12,-4.49l54.17 0c5.52,0 9.82,0.95 12.88,2.86 3.06,1.89 4.59,5.51 4.59,10.82l0 14.08c0,3.34 -0.63,5.85 -1.87,7.52 -1.25,1.68 -3.35,2.52 -6.31,2.52l-1.48 -0.1 8.98 19.04c0.86,1.84 1.65,3.42 2.37,4.73 0.72,1.31 1.61,2.73 2.67,4.24l-28.91 0 -11.54 -28.02 -7.8 0 -0.01 0zm14.01 -10.85c2.17,0 3.57,-0.38 4.19,-1.13 0.63,-0.74 0.94,-2.27 0.94,-4.55l0 -4.21c0,-2.48 -0.31,-4.13 -0.94,-4.9 -0.63,-0.79 -2.25,-1.19 -4.89,-1.19l-13.32 0 0 15.98 14.01 0zm67.88 -0.1l20.13 0c2.1,0 3.8,-0.08 5.08,-0.25 1.28,-0.16 2.71,-0.58 4.29,-1.23l0 13.91c-0.99,-0.72 -2.09,-1.2 -3.3,-1.43 -1.22,-0.23 -2.62,-0.35 -4.19,-0.35l-22 0 0 17.46 24.37 0c1.19,0 2.3,-0.11 3.35,-0.35 1.05,-0.23 3.06,-0.87 6.02,-1.92l-2.17 13.12 -59.3 0c0.92,-1.31 1.61,-2.85 2.07,-4.59 0.46,-1.73 0.69,-3.45 0.69,-5.16l0 -46.21c0,-1.97 -0.21,-3.73 -0.64,-5.26 -0.43,-1.55 -1.14,-3.04 -2.12,-4.49l57.92 0 1.87 12.43c-1.65,-0.59 -3.41,-1 -5.28,-1.23 -1.87,-0.23 -3.96,-0.34 -6.27,-0.34l-20.52 0 0 15.89 0 -0zm100.74 -13.32c-1.45,-0.99 -3.04,-1.66 -4.79,-2.02 -1.74,-0.36 -3.7,-0.54 -5.87,-0.54l-22.69 0c-1.44,0 -2.55,0.23 -3.3,0.69 -0.76,0.44 -1.14,1.37 -1.14,2.73l0 2.24c0,1.76 0.36,2.86 1.09,3.27 0.72,0.43 2.1,0.64 4.14,0.64l16.18 0c5.86,0 10.23,0.9 13.12,2.71 2.89,1.81 4.34,5.48 4.34,11l0 17.96c0,5.13 -1.56,8.68 -4.69,10.65 -3.12,1.97 -7.38,2.96 -12.78,2.96l-43.61 0 -2.27 -13.22c1.71,0.99 3.57,1.63 5.57,1.92 2.01,0.29 4.23,0.44 6.66,0.44l1.97 0 19.14 0 1.87 0c1.38,0 2.32,-0.25 2.81,-0.74 0.49,-0.49 0.74,-1.4 0.74,-2.71l0 -2.07c0,-1.45 -0.18,-2.48 -0.54,-3.11 -0.36,-0.63 -1.17,-0.94 -2.42,-0.94l-18.55 0c-5.98,0 -10.39,-0.87 -13.22,-2.62 -2.83,-1.72 -4.24,-5.39 -4.24,-10.97l0 -18.02c0,-5.11 1.58,-8.68 4.73,-10.67 3.16,-2.01 7.4,-3.01 12.73,-3.01l42.62 0 2.37 13.42 0 0.01z"/>
  </g>
 </g>
</svg>
